<svg version="1.1" xmlns="http://www.w3.org/2000/svg" xmlns:xlink="http://www.w3.org/1999/xlink" width="590.4326171875" height="236"><defs/><g><text fill="#eeeeee" stroke="none" font-family="Arial" font-size="24px" font-style="normal" font-weight="normal" text-decoration="none" x="0" y="0">UNREGISTERED</text><text fill="#eeeeee" stroke="none" font-family="Arial" font-size="24px" font-style="normal" font-weight="normal" text-decoration="none" x="0" y="30">UNREGISTERED</text><text fill="#eeeeee" stroke="none" font-family="Arial" font-size="24px" font-style="normal" font-weight="normal" text-decoration="none" x="0" y="60">UNREGISTERED</text><text fill="#eeeeee" stroke="none" font-family="Arial" font-size="24px" font-style="normal" font-weight="normal" text-decoration="none" x="0" y="90">UNREGISTERED</text><text fill="#eeeeee" stroke="none" font-family="Arial" font-size="24px" font-style="normal" font-weight="normal" text-decoration="none" x="0" y="120">UNREGISTERED</text><text fill="#eeeeee" stroke="none" font-family="Arial" font-size="24px" font-style="normal" font-weight="normal" text-decoration="none" x="0" y="150">UNREGISTERED</text><text fill="#eeeeee" stroke="none" font-family="Arial" font-size="24px" font-style="normal" font-weight="normal" text-decoration="none" x="0" y="180">UNREGISTERED</text><text fill="#eeeeee" stroke="none" font-family="Arial" font-size="24px" font-style="normal" font-weight="normal" text-decoration="none" x="0" y="210">UNREGISTERED</text><text fill="#eeeeee" stroke="none" font-family="Arial" font-size="24px" font-style="normal" font-weight="normal" text-decoration="none" x="200" y="0">UNREGISTERED</text><text fill="#eeeeee" stroke="none" font-family="Arial" font-size="24px" font-style="normal" font-weight="normal" text-decoration="none" x="200" y="30">UNREGISTERED</text><text fill="#eeeeee" stroke="none" font-family="Arial" font-size="24px" font-style="normal" font-weight="normal" text-decoration="none" x="200" y="60">UNREGISTERED</text><text fill="#eeeeee" stroke="none" font-family="Arial" font-size="24px" font-style="normal" font-weight="normal" text-decoration="none" x="200" y="90">UNREGISTERED</text><text fill="#eeeeee" stroke="none" font-family="Arial" font-size="24px" font-style="normal" font-weight="normal" text-decoration="none" x="200" y="120">UNREGISTERED</text><text fill="#eeeeee" stroke="none" font-family="Arial" font-size="24px" font-style="normal" font-weight="normal" text-decoration="none" x="200" y="150">UNREGISTERED</text><text fill="#eeeeee" stroke="none" font-family="Arial" font-size="24px" font-style="normal" font-weight="normal" text-decoration="none" x="200" y="180">UNREGISTERED</text><text fill="#eeeeee" stroke="none" font-family="Arial" font-size="24px" font-style="normal" font-weight="normal" text-decoration="none" x="200" y="210">UNREGISTERED</text><text fill="#eeeeee" stroke="none" font-family="Arial" font-size="24px" font-style="normal" font-weight="normal" text-decoration="none" x="400" y="0">UNREGISTERED</text><text fill="#eeeeee" stroke="none" font-family="Arial" font-size="24px" font-style="normal" font-weight="normal" text-decoration="none" x="400" y="30">UNREGISTERED</text><text fill="#eeeeee" stroke="none" font-family="Arial" font-size="24px" font-style="normal" font-weight="normal" text-decoration="none" x="400" y="60">UNREGISTERED</text><text fill="#eeeeee" stroke="none" font-family="Arial" font-size="24px" font-style="normal" font-weight="normal" text-decoration="none" x="400" y="90">UNREGISTERED</text><text fill="#eeeeee" stroke="none" font-family="Arial" font-size="24px" font-style="normal" font-weight="normal" text-decoration="none" x="400" y="120">UNREGISTERED</text><text fill="#eeeeee" stroke="none" font-family="Arial" font-size="24px" font-style="normal" font-weight="normal" text-decoration="none" x="400" y="150">UNREGISTERED</text><text fill="#eeeeee" stroke="none" font-family="Arial" font-size="24px" font-style="normal" font-weight="normal" text-decoration="none" x="400" y="180">UNREGISTERED</text><text fill="#eeeeee" stroke="none" font-family="Arial" font-size="24px" font-style="normal" font-weight="normal" text-decoration="none" x="400" y="210">UNREGISTERED</text><g transform="translate(-86,-46) scale(1,1)"><rect fill="#C0C0C0" stroke="none" x="103" y="247" width="106.4326171875" height="32" opacity="0.2"/></g><g transform="translate(-86,-46) scale(1,1)"><rect fill="#ffffff" stroke="none" x="96" y="240" width="106.4326171875" height="32"/></g><g transform="translate(-86,-46) scale(1,1)"><path fill="none" stroke="#000000" d="M 96 240 L 202.4326171875 240 L 202.4326171875 272 L 96 272 L 96 240 Z Z" stroke-miterlimit="10"/></g><g transform="translate(-86,-46) scale(1,1)"><g><path fill="none" stroke="none"/><text fill="#000000" stroke="none" font-family="Arial" font-size="13px" font-style="normal" font-weight="normal" text-decoration="none" x="149.21630859375" y="251"></text></g></g><g transform="translate(-86,-46) scale(1,1)"><g><path fill="none" stroke="none"/><text fill="#000000" stroke="none" font-family="Arial" font-size="13px" font-style="normal" font-weight="normal" text-decoration="none" x="110.92724609375" y="261">Administrator</text></g></g><g transform="translate(-86,-46) scale(1,1)"><g><path fill="none" stroke="none"/><text fill="#000000" stroke="none" font-family="Arial" font-size="13px" font-style="normal" font-weight="normal" text-decoration="none" x="-24.5" y="86"></text></g></g><g transform="translate(-86,-46) scale(1,1)"><path fill="#C0C0C0" stroke="none" d="M 361 135 L 425.03173828125 135 Q 435.03173828125 135 435.03173828125 145 L 435.03173828125 206 Q 435.03173828125 216 425.03173828125 216 L 361 216 Q 351 216 351 206 L 351 145 Q 351 135 361 135 Z" opacity="0.2"/></g><g transform="translate(-86,-46) scale(1,1)"><path fill="#ffffff" stroke="none" d="M 354 128 L 418.03173828125 128 Q 428.03173828125 128 428.03173828125 138 L 428.03173828125 199 Q 428.03173828125 209 418.03173828125 209 L 354 209 Q 344 209 344 199 L 344 138 Q 344 128 354 128 Z"/></g><g transform="translate(-86,-46) scale(1,1)"><path fill="none" stroke="#000000" d="M 354 128 L 418.03173828125 128 Q 428.03173828125 128 428.03173828125 138 L 428.03173828125 199 Q 428.03173828125 209 418.03173828125 209 L 354 209 Q 344 209 344 199 L 344 138 Q 344 128 354 128 Z" stroke-miterlimit="10"/></g><g transform="translate(-86,-46) scale(1,1)"><path fill="none" stroke="#000000" d="M 344 151 L 428.03173828125 151" stroke-miterlimit="10"/></g><g transform="translate(-86,-46) scale(1,1)"><g><path fill="none" stroke="none"/><text fill="#000000" stroke="none" font-family="Arial" font-size="13px" font-style="normal" font-weight="normal" text-decoration="none" x="362.529541015625" y="171">Podcast</text><text fill="#000000" stroke="none" font-family="Arial" font-size="13px" font-style="normal" font-weight="normal" text-decoration="none" x="353.5" y="184">Information</text><text fill="#000000" stroke="none" font-family="Arial" font-size="13px" font-style="normal" font-weight="normal" text-decoration="none" x="360.36181640625" y="195.5">manager</text></g></g><g transform="translate(-86,-46) scale(1,1)"><g><path fill="none" stroke="none"/><text fill="#000000" stroke="none" font-family="Arial" font-size="13px" font-style="normal" font-weight="normal" text-decoration="none" x="386.015869140625" y="139"></text></g></g><g transform="translate(-86,-46) scale(1,1)"><rect fill="#C0C0C0" stroke="none" x="567" y="63" width="106.4326171875" height="32" opacity="0.2"/></g><g transform="translate(-86,-46) scale(1,1)"><rect fill="#ffffff" stroke="none" x="560" y="56" width="106.4326171875" height="32"/></g><g transform="translate(-86,-46) scale(1,1)"><path fill="none" stroke="#000000" d="M 560 56 L 666.4326171875 56 L 666.4326171875 88 L 560 88 L 560 56 Z Z" stroke-miterlimit="10"/></g><g transform="translate(-86,-46) scale(1,1)"><g><path fill="none" stroke="none"/><text fill="#000000" stroke="none" font-family="Arial" font-size="13px" font-style="normal" font-weight="normal" text-decoration="none" x="613.21630859375" y="67"></text></g></g><g transform="translate(-86,-46) scale(1,1)"><g><path fill="none" stroke="none"/><text fill="#000000" stroke="none" font-family="Arial" font-size="13px" font-style="normal" font-weight="normal" text-decoration="none" x="595.274658203125" y="77">Visitor</text></g></g><g transform="translate(-86,-46) scale(1,1)"><g><path fill="none" stroke="none"/><text fill="#000000" stroke="none" font-family="Arial" font-size="13px" font-style="normal" font-weight="normal" text-decoration="none" x="71.5" y="-218"></text></g></g><g transform="translate(-86,-46) scale(1,1)"><path fill="none" stroke="#000000" d="M 149 240 L 149 184 M 149 184 A 8 8 0 0 1 157 176 L 344 176" stroke-miterlimit="10"/></g><g transform="translate(-86,-46) scale(1,1)"><path fill="#000000" stroke="none" d="M 333.83732514237585 180.209517756016 L 344 176 L 333.83732514237585 171.790482243984"/></g><g transform="translate(-86,-46) scale(1,1)"><path fill="none" stroke="#000000" d="M 333.83732514237585 180.209517756016 L 344 176 L 333.83732514237585 171.790482243984 L 333.83732514237585 180.209517756016" stroke-miterlimit="10"/></g><g transform="translate(-86,-46) scale(1,1)"><path fill="none" stroke="#000000" d="M 149 240 L 149 184 M 149 184 A 8 8 0 0 1 157 176 L 344 176" stroke-miterlimit="10"/></g><g transform="translate(-86,-46) scale(1,1)"><path fill="#000000" stroke="none" d="M 333.83732514237585 180.209517756016 L 344 176 L 333.83732514237585 171.790482243984"/></g><g transform="translate(-86,-46) scale(1,1)"><path fill="none" stroke="#000000" d="M 333.83732514237585 180.209517756016 L 344 176 L 333.83732514237585 171.790482243984 L 333.83732514237585 180.209517756016" stroke-miterlimit="10"/></g><g transform="translate(-86,-46) scale(1,1)"><g><path fill="none" stroke="none"/><text fill="#000000" stroke="none" font-family="Arial" font-size="13px" font-style="normal" font-weight="normal" text-decoration="none" x="136.5" y="166">data</text></g></g><g transform="translate(-86,-46) scale(1,1)"><path fill="none" stroke="#000000" d="M 613 88 L 613 172 M 613 172 A 8 8 0 0 1 605 180 L 428 180" stroke-miterlimit="10"/></g><g transform="translate(-86,-46) scale(1,1)"><path fill="#000000" stroke="none" d="M 438.16267485762415 175.790482243984 L 428 180 L 438.16267485762415 184.209517756016"/></g><g transform="translate(-86,-46) scale(1,1)"><path fill="none" stroke="#000000" d="M 438.16267485762415 175.790482243984 L 428 180 L 438.16267485762415 184.209517756016 L 438.16267485762415 175.790482243984" stroke-miterlimit="10"/></g><g transform="translate(-86,-46) scale(1,1)"><g><path fill="none" stroke="none"/><text fill="#000000" stroke="none" font-family="Arial" font-size="13px" font-style="normal" font-weight="normal" text-decoration="none" x="585.5" y="200">feedback</text></g></g><g transform="translate(-86,-46) scale(1,1)"><path fill="none" stroke="#000000" d="M 428 150 L 567 150 M 567 150 A 8 8 0 0 0 575 142 L 575 88" stroke-miterlimit="10"/></g><g transform="translate(-86,-46) scale(1,1)"><path fill="#000000" stroke="none" d="M 579.209517756016 98.16267485762415 L 575 88 L 570.790482243984 98.16267485762415"/></g><g transform="translate(-86,-46) scale(1,1)"><path fill="none" stroke="#000000" d="M 579.209517756016 98.16267485762415 L 575 88 L 570.790482243984 98.16267485762415 L 579.209517756016 98.16267485762415" stroke-miterlimit="10"/></g><g transform="translate(-86,-46) scale(1,1)"><g><path fill="none" stroke="none"/><text fill="#000000" stroke="none" font-family="Arial" font-size="13px" font-style="normal" font-weight="normal" text-decoration="none" x="494.5" y="138.5">contents</text></g></g><g transform="translate(-86,-46) scale(1,1)"><path fill="none" stroke="#000000" d="M 344 209 L 344 232 M 344 232 A 8 8 0 0 1 336 240 L 202 240" stroke-miterlimit="10"/></g><g transform="translate(-86,-46) scale(1,1)"><path fill="#000000" stroke="none" d="M 212.16267485762415 235.790482243984 L 202 240 L 212.16267485762415 244.209517756016"/></g><g transform="translate(-86,-46) scale(1,1)"><path fill="none" stroke="#000000" d="M 212.16267485762415 235.790482243984 L 202 240 L 212.16267485762415 244.209517756016 L 212.16267485762415 235.790482243984" stroke-miterlimit="10"/></g><g transform="translate(-86,-46) scale(1,1)"><g><path fill="none" stroke="none"/><text fill="#000000" stroke="none" font-family="Arial" font-size="13px" font-style="normal" font-weight="normal" text-decoration="none" x="330.5" y="260">data</text></g></g></g></svg>