<svg version="1.1" xmlns="http://www.w3.org/2000/svg" xmlns:xlink="http://www.w3.org/1999/xlink" width="822.4326171875" height="344"><defs/><g><text fill="#eeeeee" stroke="none" font-family="Arial" font-size="24px" font-style="normal" font-weight="normal" text-decoration="none" x="0" y="0">UNREGISTERED</text><text fill="#eeeeee" stroke="none" font-family="Arial" font-size="24px" font-style="normal" font-weight="normal" text-decoration="none" x="0" y="30">UNREGISTERED</text><text fill="#eeeeee" stroke="none" font-family="Arial" font-size="24px" font-style="normal" font-weight="normal" text-decoration="none" x="0" y="60">UNREGISTERED</text><text fill="#eeeeee" stroke="none" font-family="Arial" font-size="24px" font-style="normal" font-weight="normal" text-decoration="none" x="0" y="90">UNREGISTERED</text><text fill="#eeeeee" stroke="none" font-family="Arial" font-size="24px" font-style="normal" font-weight="normal" text-decoration="none" x="0" y="120">UNREGISTERED</text><text fill="#eeeeee" stroke="none" font-family="Arial" font-size="24px" font-style="normal" font-weight="normal" text-decoration="none" x="0" y="150">UNREGISTERED</text><text fill="#eeeeee" stroke="none" font-family="Arial" font-size="24px" font-style="normal" font-weight="normal" text-decoration="none" x="0" y="180">UNREGISTERED</text><text fill="#eeeeee" stroke="none" font-family="Arial" font-size="24px" font-style="normal" font-weight="normal" text-decoration="none" x="0" y="210">UNREGISTERED</text><text fill="#eeeeee" stroke="none" font-family="Arial" font-size="24px" font-style="normal" font-weight="normal" text-decoration="none" x="0" y="240">UNREGISTERED</text><text fill="#eeeeee" stroke="none" font-family="Arial" font-size="24px" font-style="normal" font-weight="normal" text-decoration="none" x="0" y="270">UNREGISTERED</text><text fill="#eeeeee" stroke="none" font-family="Arial" font-size="24px" font-style="normal" font-weight="normal" text-decoration="none" x="0" y="300">UNREGISTERED</text><text fill="#eeeeee" stroke="none" font-family="Arial" font-size="24px" font-style="normal" font-weight="normal" text-decoration="none" x="0" y="330">UNREGISTERED</text><text fill="#eeeeee" stroke="none" font-family="Arial" font-size="24px" font-style="normal" font-weight="normal" text-decoration="none" x="200" y="0">UNREGISTERED</text><text fill="#eeeeee" stroke="none" font-family="Arial" font-size="24px" font-style="normal" font-weight="normal" text-decoration="none" x="200" y="30">UNREGISTERED</text><text fill="#eeeeee" stroke="none" font-family="Arial" font-size="24px" font-style="normal" font-weight="normal" text-decoration="none" x="200" y="60">UNREGISTERED</text><text fill="#eeeeee" stroke="none" font-family="Arial" font-size="24px" font-style="normal" font-weight="normal" text-decoration="none" x="200" y="90">UNREGISTERED</text><text fill="#eeeeee" stroke="none" font-family="Arial" font-size="24px" font-style="normal" font-weight="normal" text-decoration="none" x="200" y="120">UNREGISTERED</text><text fill="#eeeeee" stroke="none" font-family="Arial" font-size="24px" font-style="normal" font-weight="normal" text-decoration="none" x="200" y="150">UNREGISTERED</text><text fill="#eeeeee" stroke="none" font-family="Arial" font-size="24px" font-style="normal" font-weight="normal" text-decoration="none" x="200" y="180">UNREGISTERED</text><text fill="#eeeeee" stroke="none" font-family="Arial" font-size="24px" font-style="normal" font-weight="normal" text-decoration="none" x="200" y="210">UNREGISTERED</text><text fill="#eeeeee" stroke="none" font-family="Arial" font-size="24px" font-style="normal" font-weight="normal" text-decoration="none" x="200" y="240">UNREGISTERED</text><text fill="#eeeeee" stroke="none" font-family="Arial" font-size="24px" font-style="normal" font-weight="normal" text-decoration="none" x="200" y="270">UNREGISTERED</text><text fill="#eeeeee" stroke="none" font-family="Arial" font-size="24px" font-style="normal" font-weight="normal" text-decoration="none" x="200" y="300">UNREGISTERED</text><text fill="#eeeeee" stroke="none" font-family="Arial" font-size="24px" font-style="normal" font-weight="normal" text-decoration="none" x="200" y="330">UNREGISTERED</text><text fill="#eeeeee" stroke="none" font-family="Arial" font-size="24px" font-style="normal" font-weight="normal" text-decoration="none" x="400" y="0">UNREGISTERED</text><text fill="#eeeeee" stroke="none" font-family="Arial" font-size="24px" font-style="normal" font-weight="normal" text-decoration="none" x="400" y="30">UNREGISTERED</text><text fill="#eeeeee" stroke="none" font-family="Arial" font-size="24px" font-style="normal" font-weight="normal" text-decoration="none" x="400" y="60">UNREGISTERED</text><text fill="#eeeeee" stroke="none" font-family="Arial" font-size="24px" font-style="normal" font-weight="normal" text-decoration="none" x="400" y="90">UNREGISTERED</text><text fill="#eeeeee" stroke="none" font-family="Arial" font-size="24px" font-style="normal" font-weight="normal" text-decoration="none" x="400" y="120">UNREGISTERED</text><text fill="#eeeeee" stroke="none" font-family="Arial" font-size="24px" font-style="normal" font-weight="normal" text-decoration="none" x="400" y="150">UNREGISTERED</text><text fill="#eeeeee" stroke="none" font-family="Arial" font-size="24px" font-style="normal" font-weight="normal" text-decoration="none" x="400" y="180">UNREGISTERED</text><text fill="#eeeeee" stroke="none" font-family="Arial" font-size="24px" font-style="normal" font-weight="normal" text-decoration="none" x="400" y="210">UNREGISTERED</text><text fill="#eeeeee" stroke="none" font-family="Arial" font-size="24px" font-style="normal" font-weight="normal" text-decoration="none" x="400" y="240">UNREGISTERED</text><text fill="#eeeeee" stroke="none" font-family="Arial" font-size="24px" font-style="normal" font-weight="normal" text-decoration="none" x="400" y="270">UNREGISTERED</text><text fill="#eeeeee" stroke="none" font-family="Arial" font-size="24px" font-style="normal" font-weight="normal" text-decoration="none" x="400" y="300">UNREGISTERED</text><text fill="#eeeeee" stroke="none" font-family="Arial" font-size="24px" font-style="normal" font-weight="normal" text-decoration="none" x="400" y="330">UNREGISTERED</text><text fill="#eeeeee" stroke="none" font-family="Arial" font-size="24px" font-style="normal" font-weight="normal" text-decoration="none" x="600" y="0">UNREGISTERED</text><text fill="#eeeeee" stroke="none" font-family="Arial" font-size="24px" font-style="normal" font-weight="normal" text-decoration="none" x="600" y="30">UNREGISTERED</text><text fill="#eeeeee" stroke="none" font-family="Arial" font-size="24px" font-style="normal" font-weight="normal" text-decoration="none" x="600" y="60">UNREGISTERED</text><text fill="#eeeeee" stroke="none" font-family="Arial" font-size="24px" font-style="normal" font-weight="normal" text-decoration="none" x="600" y="90">UNREGISTERED</text><text fill="#eeeeee" stroke="none" font-family="Arial" font-size="24px" font-style="normal" font-weight="normal" text-decoration="none" x="600" y="120">UNREGISTERED</text><text fill="#eeeeee" stroke="none" font-family="Arial" font-size="24px" font-style="normal" font-weight="normal" text-decoration="none" x="600" y="150">UNREGISTERED</text><text fill="#eeeeee" stroke="none" font-family="Arial" font-size="24px" font-style="normal" font-weight="normal" text-decoration="none" x="600" y="180">UNREGISTERED</text><text fill="#eeeeee" stroke="none" font-family="Arial" font-size="24px" font-style="normal" font-weight="normal" text-decoration="none" x="600" y="210">UNREGISTERED</text><text fill="#eeeeee" stroke="none" font-family="Arial" font-size="24px" font-style="normal" font-weight="normal" text-decoration="none" x="600" y="240">UNREGISTERED</text><text fill="#eeeeee" stroke="none" font-family="Arial" font-size="24px" font-style="normal" font-weight="normal" text-decoration="none" x="600" y="270">UNREGISTERED</text><text fill="#eeeeee" stroke="none" font-family="Arial" font-size="24px" font-style="normal" font-weight="normal" text-decoration="none" x="600" y="300">UNREGISTERED</text><text fill="#eeeeee" stroke="none" font-family="Arial" font-size="24px" font-style="normal" font-weight="normal" text-decoration="none" x="600" y="330">UNREGISTERED</text><text fill="#eeeeee" stroke="none" font-family="Arial" font-size="24px" font-style="normal" font-weight="normal" text-decoration="none" x="800" y="0">UNREGISTERED</text><text fill="#eeeeee" stroke="none" font-family="Arial" font-size="24px" font-style="normal" font-weight="normal" text-decoration="none" x="800" y="30">UNREGISTERED</text><text fill="#eeeeee" stroke="none" font-family="Arial" font-size="24px" font-style="normal" font-weight="normal" text-decoration="none" x="800" y="60">UNREGISTERED</text><text fill="#eeeeee" stroke="none" font-family="Arial" font-size="24px" font-style="normal" font-weight="normal" text-decoration="none" x="800" y="90">UNREGISTERED</text><text fill="#eeeeee" stroke="none" font-family="Arial" font-size="24px" font-style="normal" font-weight="normal" text-decoration="none" x="800" y="120">UNREGISTERED</text><text fill="#eeeeee" stroke="none" font-family="Arial" font-size="24px" font-style="normal" font-weight="normal" text-decoration="none" x="800" y="150">UNREGISTERED</text><text fill="#eeeeee" stroke="none" font-family="Arial" font-size="24px" font-style="normal" font-weight="normal" text-decoration="none" x="800" y="180">UNREGISTERED</text><text fill="#eeeeee" stroke="none" font-family="Arial" font-size="24px" font-style="normal" font-weight="normal" text-decoration="none" x="800" y="210">UNREGISTERED</text><text fill="#eeeeee" stroke="none" font-family="Arial" font-size="24px" font-style="normal" font-weight="normal" text-decoration="none" x="800" y="240">UNREGISTERED</text><text fill="#eeeeee" stroke="none" font-family="Arial" font-size="24px" font-style="normal" font-weight="normal" text-decoration="none" x="800" y="270">UNREGISTERED</text><text fill="#eeeeee" stroke="none" font-family="Arial" font-size="24px" font-style="normal" font-weight="normal" text-decoration="none" x="800" y="300">UNREGISTERED</text><text fill="#eeeeee" stroke="none" font-family="Arial" font-size="24px" font-style="normal" font-weight="normal" text-decoration="none" x="800" y="330">UNREGISTERED</text><g transform="translate(-278,-174) scale(1,1)"><rect fill="#C0C0C0" stroke="none" x="295" y="191" width="106.4326171875" height="32" opacity="0.2"/></g><g transform="translate(-278,-174) scale(1,1)"><rect fill="#ffffff" stroke="none" x="288" y="184" width="106.4326171875" height="32"/></g><g transform="translate(-278,-174) scale(1,1)"><path fill="none" stroke="#000000" d="M 288 184 L 394.4326171875 184 L 394.4326171875 216 L 288 216 L 288 184 Z Z" stroke-miterlimit="10"/></g><g transform="translate(-278,-174) scale(1,1)"><g><path fill="none" stroke="none"/><text fill="#000000" stroke="none" font-family="Arial" font-size="13px" font-style="normal" font-weight="normal" text-decoration="none" x="341.21630859375" y="195"></text></g></g><g transform="translate(-278,-174) scale(1,1)"><g><path fill="none" stroke="none"/><text fill="#000000" stroke="none" font-family="Arial" font-size="13px" font-style="normal" font-weight="normal" text-decoration="none" x="302.92724609375" y="205">Administrator</text></g></g><g transform="translate(-278,-174) scale(1,1)"><g><path fill="none" stroke="none"/><text fill="#000000" stroke="none" font-family="Arial" font-size="13px" font-style="normal" font-weight="normal" text-decoration="none" x="287.5" y="190"></text></g></g><g transform="translate(-278,-174) scale(1,1)"><path fill="#C0C0C0" stroke="none" d="M 441 383 L 579.8798828125 383 Q 589.8798828125 383 589.8798828125 393 L 589.8798828125 454 Q 589.8798828125 464 579.8798828125 464 L 441 464 Q 431 464 431 454 L 431 393 Q 431 383 441 383 Z" opacity="0.2"/></g><g transform="translate(-278,-174) scale(1,1)"><path fill="#ffffff" stroke="none" d="M 434 376 L 572.8798828125 376 Q 582.8798828125 376 582.8798828125 386 L 582.8798828125 447 Q 582.8798828125 457 572.8798828125 457 L 434 457 Q 424 457 424 447 L 424 386 Q 424 376 434 376 Z"/></g><g transform="translate(-278,-174) scale(1,1)"><path fill="none" stroke="#000000" d="M 434 376 L 572.8798828125 376 Q 582.8798828125 376 582.8798828125 386 L 582.8798828125 447 Q 582.8798828125 457 572.8798828125 457 L 434 457 Q 424 457 424 447 L 424 386 Q 424 376 434 376 Z" stroke-miterlimit="10"/></g><g transform="translate(-278,-174) scale(1,1)"><path fill="none" stroke="#000000" d="M 424 399 L 582.8798828125 399" stroke-miterlimit="10"/></g><g transform="translate(-278,-174) scale(1,1)"><g><path fill="none" stroke="none"/><text fill="#000000" stroke="none" font-family="Arial" font-size="13px" font-style="normal" font-weight="normal" text-decoration="none" x="465.496826171875" y="419">Podcast data</text><text fill="#000000" stroke="none" font-family="Arial" font-size="13px" font-style="normal" font-weight="normal" text-decoration="none" x="465.5" y="431.5">management</text></g></g><g transform="translate(-278,-174) scale(1,1)"><g><path fill="none" stroke="none"/><text fill="#000000" stroke="none" font-family="Arial" font-size="13px" font-style="normal" font-weight="normal" text-decoration="none" x="503.43994140625" y="387"></text></g></g><g transform="translate(-278,-174) scale(1,1)"><rect fill="#C0C0C0" stroke="none" x="815" y="255" width="94.76171875" height="45" opacity="0.2"/></g><g transform="translate(-278,-174) scale(1,1)"><rect fill="#ffffff" stroke="none" x="808" y="248" width="94.76171875" height="45"/></g><g transform="translate(-278,-174) scale(1,1)"><path fill="none" stroke="#000000" d="M 808 248 L 808 293" stroke-miterlimit="10"/></g><g transform="translate(-278,-174) scale(1,1)"><path fill="none" stroke="#000000" d="M 808 248 L 902.76171875 248" stroke-miterlimit="10"/></g><g transform="translate(-278,-174) scale(1,1)"><path fill="none" stroke="#000000" d="M 808 293 L 902.76171875 293" stroke-miterlimit="10"/></g><g transform="translate(-278,-174) scale(1,1)"><path fill="none" stroke="#000000" d="M 818 248 L 818 293" stroke-miterlimit="10"/></g><g transform="translate(-278,-174) scale(1,1)"><g><path fill="none" stroke="none"/><text fill="#000000" stroke="none" font-family="Arial" font-size="13px" font-style="normal" font-weight="normal" text-decoration="none" x="833.64453125" y="269">Podcasts</text><text fill="#000000" stroke="none" font-family="Arial" font-size="13px" font-style="normal" font-weight="normal" text-decoration="none" x="828.226806640625" y="282">information</text></g></g><g transform="translate(-278,-174) scale(1,1)"><g><path fill="none" stroke="none"/><text fill="#000000" stroke="none" font-family="Arial" font-size="13px" font-style="normal" font-weight="normal" text-decoration="none" x="812.5" y="264"></text></g></g><g transform="translate(-278,-174) scale(1,1)"><path fill="none" stroke="#000000" d="M 576 376 L 576 270 L 808 270" stroke-miterlimit="10"/></g><g transform="translate(-278,-174) scale(1,1)"><path fill="#000000" stroke="none" d="M 797.8373251423759 274.209517756016 L 808 270 L 797.8373251423758 265.790482243984"/></g><g transform="translate(-278,-174) scale(1,1)"><path fill="none" stroke="#000000" d="M 797.8373251423759 274.209517756016 L 808 270 L 797.8373251423758 265.790482243984 L 797.8373251423759 274.209517756016" stroke-miterlimit="10"/></g><g transform="translate(-278,-174) scale(1,1)"><g><path fill="none" stroke="none"/><text fill="#000000" stroke="none" font-family="Arial" font-size="13px" font-style="normal" font-weight="normal" text-decoration="none" x="582.5" y="260">information</text></g></g><g transform="translate(-278,-174) scale(1,1)"><path fill="none" stroke="#000000" d="M 341 216 L 341 219 L 480 219 L 480 376" stroke-miterlimit="10"/></g><g transform="translate(-278,-174) scale(1,1)"><path fill="#000000" stroke="none" d="M 475.790482243984 365.83732514237585 L 480 376 L 484.209517756016 365.83732514237585"/></g><g transform="translate(-278,-174) scale(1,1)"><path fill="none" stroke="#000000" d="M 475.790482243984 365.83732514237585 L 480 376 L 484.209517756016 365.83732514237585 L 475.790482243984 365.83732514237585" stroke-miterlimit="10"/></g><g transform="translate(-278,-174) scale(1,1)"><g><path fill="none" stroke="none"/><text fill="#000000" stroke="none" font-family="Arial" font-size="13px" font-style="normal" font-weight="normal" text-decoration="none" x="447.5" y="234">data</text></g></g><g transform="translate(-278,-174) scale(1,1)"><path fill="#C0C0C0" stroke="none" d="M 865 447 L 928.30810546875 447 Q 938.30810546875 447 938.30810546875 457 L 938.30810546875 505 Q 938.30810546875 515 928.30810546875 515 L 865 515 Q 855 515 855 505 L 855 457 Q 855 447 865 447 Z" opacity="0.2"/></g><g transform="translate(-278,-174) scale(1,1)"><path fill="#ffffff" stroke="none" d="M 858 440 L 921.30810546875 440 Q 931.30810546875 440 931.30810546875 450 L 931.30810546875 498 Q 931.30810546875 508 921.30810546875 508 L 858 508 Q 848 508 848 498 L 848 450 Q 848 440 858 440 Z"/></g><g transform="translate(-278,-174) scale(1,1)"><path fill="none" stroke="#000000" d="M 858 440 L 921.30810546875 440 Q 931.30810546875 440 931.30810546875 450 L 931.30810546875 498 Q 931.30810546875 508 921.30810546875 508 L 858 508 Q 848 508 848 498 L 848 450 Q 848 440 858 440 Z" stroke-miterlimit="10"/></g><g transform="translate(-278,-174) scale(1,1)"><path fill="none" stroke="#000000" d="M 848 463 L 931.30810546875 463" stroke-miterlimit="10"/></g><g transform="translate(-278,-174) scale(1,1)"><g><path fill="none" stroke="none"/><text fill="#000000" stroke="none" font-family="Arial" font-size="13px" font-style="normal" font-weight="normal" text-decoration="none" x="873.39453125" y="483">Show</text><text fill="#000000" stroke="none" font-family="Arial" font-size="13px" font-style="normal" font-weight="normal" text-decoration="none" x="857.5" y="496">information</text></g></g><g transform="translate(-278,-174) scale(1,1)"><g><path fill="none" stroke="none"/><text fill="#000000" stroke="none" font-family="Arial" font-size="13px" font-style="normal" font-weight="normal" text-decoration="none" x="889.654052734375" y="451"></text></g></g><g transform="translate(-278,-174) scale(1,1)"><path fill="none" stroke="#000000" d="M 872 293 L 872 440" stroke-miterlimit="10"/></g><g transform="translate(-278,-174) scale(1,1)"><path fill="#000000" stroke="none" d="M 867.790482243984 429.83732514237585 L 872 440 L 876.209517756016 429.83732514237585"/></g><g transform="translate(-278,-174) scale(1,1)"><path fill="none" stroke="#000000" d="M 867.790482243984 429.83732514237585 L 872 440 L 876.209517756016 429.83732514237585 L 867.790482243984 429.83732514237585" stroke-miterlimit="10"/></g><g transform="translate(-278,-174) scale(1,1)"><g><path fill="none" stroke="none"/><text fill="#000000" stroke="none" font-family="Arial" font-size="13px" font-style="normal" font-weight="normal" text-decoration="none" x="878.5" y="363">information</text></g></g><g transform="translate(-278,-174) scale(1,1)"><rect fill="#C0C0C0" stroke="none" x="991" y="375" width="106.4326171875" height="32" opacity="0.2"/></g><g transform="translate(-278,-174) scale(1,1)"><rect fill="#ffffff" stroke="none" x="984" y="368" width="106.4326171875" height="32"/></g><g transform="translate(-278,-174) scale(1,1)"><path fill="none" stroke="#000000" d="M 984 368 L 1090.4326171875 368 L 1090.4326171875 400 L 984 400 L 984 368 Z Z" stroke-miterlimit="10"/></g><g transform="translate(-278,-174) scale(1,1)"><g><path fill="none" stroke="none"/><text fill="#000000" stroke="none" font-family="Arial" font-size="13px" font-style="normal" font-weight="normal" text-decoration="none" x="1037.21630859375" y="379"></text></g></g><g transform="translate(-278,-174) scale(1,1)"><g><path fill="none" stroke="none"/><text fill="#000000" stroke="none" font-family="Arial" font-size="13px" font-style="normal" font-weight="normal" text-decoration="none" x="1019.274658203125" y="389">Visitor</text></g></g><g transform="translate(-278,-174) scale(1,1)"><g><path fill="none" stroke="none"/><text fill="#000000" stroke="none" font-family="Arial" font-size="13px" font-style="normal" font-weight="normal" text-decoration="none" x="983.5" y="374"></text></g></g><g transform="translate(-278,-174) scale(1,1)"><path fill="none" stroke="#000000" d="M 931 448 L 1008 448 M 1008 448 A 8 8 0 0 0 1016 440 L 1016 400" stroke-miterlimit="10"/></g><g transform="translate(-278,-174) scale(1,1)"><path fill="#000000" stroke="none" d="M 1020.209517756016 410.16267485762415 L 1016 400 L 1011.790482243984 410.16267485762415"/></g><g transform="translate(-278,-174) scale(1,1)"><path fill="none" stroke="#000000" d="M 1020.209517756016 410.16267485762415 L 1016 400 L 1011.790482243984 410.16267485762415 L 1020.209517756016 410.16267485762415" stroke-miterlimit="10"/></g><g transform="translate(-278,-174) scale(1,1)"><g><path fill="none" stroke="none"/><text fill="#000000" stroke="none" font-family="Arial" font-size="13px" font-style="normal" font-weight="normal" text-decoration="none" x="975.5" y="474.5">contents</text></g></g><g transform="translate(-278,-174) scale(1,1)"><path fill="none" stroke="#000000" d="M 832 293 L 832 408 M 832 408 A 8 8 0 0 1 824 416 L 583 416" stroke-miterlimit="10"/></g><g transform="translate(-278,-174) scale(1,1)"><path fill="#000000" stroke="none" d="M 593.1626748576241 411.790482243984 L 583 416 L 593.1626748576241 420.209517756016"/></g><g transform="translate(-278,-174) scale(1,1)"><path fill="none" stroke="#000000" d="M 593.1626748576241 411.790482243984 L 583 416 L 593.1626748576241 420.209517756016 L 593.1626748576241 411.790482243984" stroke-miterlimit="10"/></g><g transform="translate(-278,-174) scale(1,1)"><g><path fill="none" stroke="none"/><text fill="#000000" stroke="none" font-family="Arial" font-size="13px" font-style="normal" font-weight="normal" text-decoration="none" x="750.5" y="402">information</text></g></g><g transform="translate(-278,-174) scale(1,1)"><path fill="none" stroke="#000000" d="M 424 376 L 328 376 M 328 376 A 8 8 0 0 1 320 368 L 320 216" stroke-miterlimit="10"/></g><g transform="translate(-278,-174) scale(1,1)"><path fill="#000000" stroke="none" d="M 324.209517756016 226.16267485762415 L 320 216 L 315.790482243984 226.16267485762415"/></g><g transform="translate(-278,-174) scale(1,1)"><path fill="none" stroke="#000000" d="M 324.209517756016 226.16267485762415 L 320 216 L 315.790482243984 226.16267485762415 L 324.209517756016 226.16267485762415" stroke-miterlimit="10"/></g><g transform="translate(-278,-174) scale(1,1)"><g><path fill="none" stroke="none"/><text fill="#000000" stroke="none" font-family="Arial" font-size="13px" font-style="normal" font-weight="normal" text-decoration="none" x="327.5" y="363">data</text></g></g><g transform="translate(-278,-174) scale(1,1)"><path fill="#C0C0C0" stroke="none" d="M 993 215 L 1067.8798828125 215 Q 1077.8798828125 215 1077.8798828125 225 L 1077.8798828125 273 Q 1077.8798828125 283 1067.8798828125 283 L 993 283 Q 983 283 983 273 L 983 225 Q 983 215 993 215 Z" opacity="0.2"/></g><g transform="translate(-278,-174) scale(1,1)"><path fill="#ffffff" stroke="none" d="M 986 208 L 1060.8798828125 208 Q 1070.8798828125 208 1070.8798828125 218 L 1070.8798828125 266 Q 1070.8798828125 276 1060.8798828125 276 L 986 276 Q 976 276 976 266 L 976 218 Q 976 208 986 208 Z"/></g><g transform="translate(-278,-174) scale(1,1)"><path fill="none" stroke="#000000" d="M 986 208 L 1060.8798828125 208 Q 1070.8798828125 208 1070.8798828125 218 L 1070.8798828125 266 Q 1070.8798828125 276 1060.8798828125 276 L 986 276 Q 976 276 976 266 L 976 218 Q 976 208 986 208 Z" stroke-miterlimit="10"/></g><g transform="translate(-278,-174) scale(1,1)"><path fill="none" stroke="#000000" d="M 976 231 L 1070.8798828125 231" stroke-miterlimit="10"/></g><g transform="translate(-278,-174) scale(1,1)"><g><path fill="none" stroke="none"/><text fill="#000000" stroke="none" font-family="Arial" font-size="13px" font-style="normal" font-weight="normal" text-decoration="none" x="997.05908203125" y="251">feedback</text><text fill="#000000" stroke="none" font-family="Arial" font-size="13px" font-style="normal" font-weight="normal" text-decoration="none" x="985.5" y="263.5">management</text></g></g><g transform="translate(-278,-174) scale(1,1)"><g><path fill="none" stroke="none"/><text fill="#000000" stroke="none" font-family="Arial" font-size="13px" font-style="normal" font-weight="normal" text-decoration="none" x="1023.43994140625" y="219"></text></g></g><g transform="translate(-278,-174) scale(1,1)"><path fill="none" stroke="#000000" d="M 1026 368 L 1026 276" stroke-miterlimit="10"/></g><g transform="translate(-278,-174) scale(1,1)"><path fill="#000000" stroke="none" d="M 1030.2095177560159 286.16267485762415 L 1026 276 L 1021.790482243984 286.16267485762415"/></g><g transform="translate(-278,-174) scale(1,1)"><path fill="none" stroke="#000000" d="M 1030.2095177560159 286.16267485762415 L 1026 276 L 1021.790482243984 286.16267485762415 L 1030.2095177560159 286.16267485762415" stroke-miterlimit="10"/></g><g transform="translate(-278,-174) scale(1,1)"><g><path fill="none" stroke="none"/><text fill="#000000" stroke="none" font-family="Arial" font-size="13px" font-style="normal" font-weight="normal" text-decoration="none" x="1029.5" y="314">feedback</text></g></g><g transform="translate(-278,-174) scale(1,1)"><path fill="none" stroke="#000000" d="M 976 262 L 903 262" stroke-miterlimit="10"/></g><g transform="translate(-278,-174) scale(1,1)"><path fill="#000000" stroke="none" d="M 913.1626748576241 257.790482243984 L 903 262 L 913.1626748576241 266.209517756016"/></g><g transform="translate(-278,-174) scale(1,1)"><path fill="none" stroke="#000000" d="M 913.1626748576241 257.790482243984 L 903 262 L 913.1626748576241 266.209517756016 L 913.1626748576241 257.790482243984" stroke-miterlimit="10"/></g></g></svg>